<?xml version="1.0" standalone="no"?>
<!DOCTYPE svg PUBLIC "-//W3C//DTD SVG 20010904//EN"
 "http://www.w3.org/TR/2001/REC-SVG-20010904/DTD/svg10.dtd">
<svg version="1.0" xmlns="http://www.w3.org/2000/svg"
 width="1024.000000pt" height="1024.000000pt" viewBox="0 0 1024.000000 1024.000000"
 preserveAspectRatio="xMidYMid meet">

<g transform="translate(0.000000,1024.000000) scale(0.100000,-0.100000)"
fill="#000000" stroke="none">
<path d="M1350 9777 c0 -46 -10 -57 -51 -57 -19 0 -19 -17 -19 -733 0 -404 -3
-943 -7 -1200 l-6 -466 51 -7 c34 -4 52 -11 52 -20 0 -11 -18 -14 -75 -14 -60
0 -75 -3 -75 -15 0 -12 15 -15 75 -15 60 0 75 -3 75 -15 0 -8 -8 -15 -17 -16
-10 0 -40 -1 -68 -3 -27 -1 -56 -1 -62 2 -16 5 -17 46 -2 73 9 19 9 19 -10 10
-11 -6 -33 -11 -50 -11 -30 0 -31 -1 -31 -50 l0 -50 -40 0 c-35 0 -40 -3 -40
-22 0 -53 -11 -68 -46 -68 -32 0 -34 -2 -34 -34 0 -38 -32 -81 -65 -87 -17 -4
-19 -11 -16 -48 l3 -43 -36 4 -36 4 0 -42 0 -43 -42 -3 -43 -3 -3 -52 c-3 -45
-6 -52 -25 -55 -18 -2 -23 -11 -25 -40 -3 -38 -4 -38 -48 -38 l-44 0 0 -59 c0
-58 1 -59 31 -65 62 -12 77 -8 81 22 3 25 7 27 51 30 45 3 47 4 48 35 1 18 1
38 0 45 -1 6 7 12 18 12 38 0 51 11 51 46 0 33 1 34 40 34 l40 0 0 55 0 55 35
0 c33 0 35 2 35 35 0 33 2 35 34 35 34 0 35 1 38 48 l3 47 57 3 57 3 3 -78 c2
-43 0 -274 -3 -513 -4 -239 -7 -643 -8 -897 -1 -301 -4 -463 -11 -463 -5 0
-11 24 -11 53 -1 53 -3 51 -14 -15 -6 -37 -35 -56 -35 -23 0 8 -4 15 -10 15
-5 0 -10 -7 -10 -16 0 -8 -4 -12 -10 -9 -5 3 -10 28 -10 55 0 54 -7 60 -73 60
-27 0 -37 3 -29 9 11 7 11 9 -1 14 -10 4 -18 25 -22 54 -11 83 -14 93 -35 93
-10 0 -22 -4 -25 -10 -3 -5 -17 -10 -30 -10 -20 0 -24 6 -27 38 -3 32 -6 37
-28 37 -24 0 -25 3 -30 70 -5 63 -7 70 -27 73 -21 3 -23 -1 -23 -37 0 -37 -2
-41 -25 -41 l-25 0 0 495 0 494 -34 6 c-18 4 -44 5 -57 3 l-24 -3 -3 -517 -2
-518 34 0 c34 0 35 -1 38 -47 3 -48 3 -48 41 -51 l37 -3 0 -50 0 -49 39 0 c35
0 40 -3 39 -22 -1 -13 -1 -40 0 -60 2 -32 6 -38 25 -38 59 0 66 -8 69 -74 l3
-61 58 -3 57 -3 0 -64 0 -65 149 0 148 0 7 50 7 51 101 -3 102 -3 -2 -100 -3
-100 41 -29 c27 -18 39 -33 36 -43 -3 -8 -6 -28 -6 -44 0 -24 -4 -29 -25 -29
-24 0 -25 -3 -25 -55 l0 -55 -80 0 -80 0 0 -830 c0 -456 -1 -833 -2 -837 -2
-5 21 -9 50 -11 l52 -3 0 -84 0 -84 35 -7 c34 -6 35 -8 35 -50 0 -43 1 -44 34
-44 35 0 46 -15 46 -67 0 -17 6 -23 23 -23 33 0 45 -12 49 -45 3 -27 7 -30 41
-33 37 -3 37 -4 37 -48 0 -44 0 -44 35 -44 34 0 35 -1 35 -39 0 -39 1 -40 38
-43 35 -3 37 -5 40 -40 3 -37 4 -38 43 -38 l39 0 0 -49 0 -48 50 -7 c28 -4 55
-4 60 -1 6 4 10 -32 10 -94 l0 -101 145 0 145 0 0 -50 0 -50 40 0 40 0 0 -45
c0 -45 0 -45 34 -45 56 0 66 -8 66 -51 0 -39 0 -39 39 -39 33 0 40 -4 43 -22
2 -19 10 -24 41 -26 35 -3 37 -5 37 -37 0 -33 13 -45 50 -45 14 0 20 -9 22
-37 3 -33 7 -38 31 -41 24 -3 27 -7 27 -43 0 -38 1 -39 35 -39 34 0 35 -1 35
-39 0 -22 4 -42 9 -45 4 -3 31 -6 60 -7 l51 -2 0 -65 c0 -55 3 -65 19 -69 14
-3 21 -15 23 -37 l3 -31 205 0 205 0 3 53 c3 51 4 52 33 52 51 0 69 16 69 61
l0 41 79 -3 c44 -2 83 -8 87 -12 5 -4 10 -37 12 -72 l4 -65 43 0 c40 0 43 -2
49 -31 3 -17 6 -58 6 -90 l0 -58 45 -7 45 -6 0 -69 0 -69 45 0 45 0 0 -74 c0
-83 1 -84 88 -82 l42 1 2 -45 c1 -25 2 -54 2 -65 1 -20 9 -20 879 -23 l877 -2
0 64 0 65 53 3 52 3 3 77 3 77 62 3 62 3 5 75 5 75 38 3 37 3 0 75 0 74 55 0
54 0 3 83 3 82 93 3 92 3 0 -56 c0 -54 0 -55 30 -55 25 0 30 -4 30 -24 0 -16
7 -27 20 -31 11 -3 20 -15 20 -26 0 -18 9 -19 205 -19 l205 0 0 35 c0 19 5 35
10 35 6 0 10 30 10 70 l0 69 58 3 57 3 -3 43 c-3 37 -1 42 17 42 18 0 21 6 21
40 l0 40 75 0 75 0 0 60 0 60 39 0 c40 0 40 0 43 42 3 42 4 43 41 46 37 3 37
4 37 48 l0 44 50 0 50 0 0 39 c0 36 2 39 35 45 34 7 35 8 35 56 l0 49 118 3
117 3 -3 42 -3 42 43 3 c42 3 43 4 46 41 l3 37 75 0 74 0 0 80 0 80 39 0 c47
0 65 19 59 64 l-4 35 46 3 45 3 0 50 0 50 53 3 54 3 -4 44 c-3 43 -2 44 27 47
27 3 30 6 30 38 0 31 3 34 30 35 28 0 30 3 33 42 3 41 5 43 34 43 30 0 31 1
25 40 l-5 40 39 0 39 0 0 59 0 60 57 7 56 7 -6 306 c-4 168 -7 537 -7 819 l0
512 -60 0 -60 0 0 143 c0 78 -4 147 -8 154 -4 6 -23 13 -42 15 l-35 3 -3 62
-3 62 36 7 c19 3 35 10 35 15 0 5 36 9 80 9 l80 0 0 -40 0 -40 125 0 125 0 0
29 c0 28 3 30 43 33 40 3 42 4 45 39 3 35 4 36 45 35 l42 -1 3 43 c2 28 8 42
18 42 8 0 14 9 14 19 0 14 8 21 28 23 25 3 27 7 30 56 l3 52 39 0 39 0 3 53
c2 38 7 52 18 53 64 4 60 0 60 59 l0 55 40 0 40 0 2 490 c1 270 2 502 2 518 1
27 1 27 -59 24 l-60 -3 3 95 c3 91 2 96 -17 96 -17 0 -21 6 -21 35 0 34 -1 35
-39 35 l-40 0 -3 53 c-3 48 -5 52 -30 55 -24 3 -27 8 -30 45 -3 39 -5 42 -35
45 -30 3 -32 5 -35 50 -3 46 -4 47 -45 56 -39 8 -42 11 -45 45 -3 34 -5 36
-40 39 -36 3 -37 4 -40 50 -3 47 -3 47 -42 52 -39 5 -40 5 -40 50 -1 45 -1 45
-38 48 l-38 3 0 338 c0 186 -3 730 -7 1209 l-6 872 -49 0 -48 0 0 45 0 45 -75
0 -75 0 0 -50 0 -50 -39 0 c-39 0 -40 -1 -46 -44 -6 -36 -12 -46 -29 -48 -17
-2 -22 -11 -24 -45 -3 -42 -4 -43 -38 -43 l-34 0 0 -50 0 -50 -45 0 c-29 0
-46 -5 -46 -12 -1 -7 -2 -49 -3 -93 -1 -79 -1 -80 -28 -83 -24 -3 -27 -8 -35
-65 -7 -57 -10 -62 -34 -65 -23 -3 -27 -9 -33 -49 -3 -25 -6 -68 -6 -95 0 -27
-3 -47 -7 -45 -5 3 -18 1 -30 -4 -19 -7 -23 -16 -23 -49 l0 -40 -45 0 -45 0 0
-50 c0 -49 -1 -50 -30 -50 -30 0 -30 0 -30 -60 0 -51 -3 -60 -17 -58 -10 1
-37 0 -60 0 l-43 -2 0 -45 0 -44 -57 -3 c-57 -3 -58 -3 -61 -35 -3 -29 -7 -33
-32 -33 -29 0 -29 0 -32 -67 l-3 -68 -40 -1 c-22 0 -45 -2 -52 -2 -11 -2 -20
-116 -26 -347 -3 -108 -5 -120 -21 -120 -17 0 -18 21 -22 355 -3 195 -7 406
-10 468 l-6 112 -61 1 c-34 1 -67 1 -74 0 -8 -1 -13 18 -15 56 l-3 58 -32 -3
c-69 -7 -69 -6 -65 133 l4 125 -46 0 c-46 0 -46 0 -46 35 l0 35 -50 0 -50 0 0
45 c0 45 0 45 -34 45 -33 0 -35 2 -38 38 -3 37 -4 37 -50 40 l-47 3 -3 42 c-3
41 -4 42 -40 45 -38 3 -38 3 -38 48 l0 44 -535 -2 -535 -3 0 43 0 42 -740 0
-740 0 0 -39 c0 -49 -8 -71 -26 -71 -9 0 -14 11 -14 28 0 26 -2 27 -55 27 -37
0 -55 -4 -55 -12 0 -10 -89 -13 -410 -13 -403 0 -410 0 -411 -20 -1 -11 -2
-25 -3 -32 0 -7 -14 -12 -31 -13 -89 -3 -85 -1 -85 -49 0 -42 -2 -45 -32 -51
-45 -10 -58 -22 -58 -55 0 -25 -5 -29 -40 -35 -40 -7 -40 -7 -40 -51 0 -50
-19 -61 -21 -11 -2 30 -2 31 -6 4 -5 -32 -34 -47 -94 -47 l-39 0 0 -105 0
-105 -38 0 -39 0 -9 -82 c-9 -79 -10 -83 -34 -83 -19 0 -26 -7 -34 -32 -9 -32
-10 -33 -66 -33 l-57 0 -6 -383 c-4 -211 -10 -425 -13 -475 l-7 -92 39 0 c53
0 71 -12 49 -33 -9 -9 -31 -24 -50 -32 -29 -15 -36 -15 -62 -2 -15 8 -37 17
-48 19 -22 3 -35 16 -35 36 0 8 16 12 45 12 l46 0 -1 220 -1 220 -23 0 c-13 0
-38 3 -55 6 -27 6 -31 10 -31 40 0 34 -1 34 -45 34 l-45 0 0 55 c0 52 -1 55
-24 55 -22 0 -25 5 -28 43 -3 42 -3 42 -45 45 -41 3 -43 5 -45 35 -1 18 -1 42
0 55 1 20 -2 22 -14 12 -11 -10 -14 -9 -14 9 0 18 -6 21 -40 21 l-40 0 0 65
c0 62 -1 65 -24 65 -27 0 -36 16 -36 66 0 31 -3 34 -29 34 -29 0 -30 2 -33 53
-3 48 -5 52 -28 52 -24 0 -25 2 -22 58 l3 57 -45 0 -45 0 -3 58 c-3 54 -5 57
-30 60 -25 3 -27 7 -30 55 -3 51 -4 52 -38 57 -34 5 -35 6 -34 53 0 45 -1 47
-27 47 -27 0 -28 2 -31 63 l-3 62 -47 3 -48 3 -1 45 c-1 24 -2 50 -3 57 -1 7
-22 13 -58 15 l-57 3 -3 57 -3 57 -62 3 -63 3 0 -44z m7490 -817 c0 -552 -3
-702 -12 -705 -7 -2 -51 -6 -98 -7 l-85 -3 -3 -32 c-3 -30 -6 -32 -45 -35 -39
-3 -42 -5 -45 -35 -3 -30 -6 -33 -38 -33 l-34 0 0 -50 0 -50 -40 0 -39 0 -3
-62 c-2 -41 -7 -63 -15 -64 -7 -1 -22 -2 -33 -3 -16 -1 -20 -8 -20 -41 0 -36
-2 -40 -25 -40 -25 0 -25 -1 -25 -85 l0 -85 40 0 40 0 0 40 c0 39 1 40 35 40
33 0 35 2 35 34 0 32 3 35 33 38 30 3 32 6 35 45 3 39 5 42 35 45 30 3 32 5
29 41 -3 35 -2 37 27 37 29 0 31 3 31 35 0 34 1 35 40 35 38 0 40 2 40 29 0
25 5 31 30 36 26 6 31 12 36 46 6 38 8 39 45 39 l39 0 0 -228 c0 -126 -3 -317
-7 -425 -6 -178 -8 -197 -23 -197 -12 0 -20 -11 -24 -35 -6 -29 -12 -37 -36
-42 -48 -9 -47 -11 -49 55 0 17 -5 32 -11 32 -7 0 -10 -319 -10 -938 l0 -938
-256 -262 -256 -262 -109 0 -109 0 0 348 0 347 120 89 c66 48 130 101 143 117
12 17 34 45 49 63 35 42 26 53 -17 21 -17 -14 -35 -25 -38 -25 -4 0 -7 362 -7
804 l0 805 25 3 c14 2 26 8 26 13 0 6 -12 11 -26 13 -24 3 -25 6 -26 85 -1 45
-5 251 -8 457 -8 468 -23 505 -32 75 -6 -311 -13 -416 -31 -498 l-10 -49 -174
3 -173 4 -6 40 c-3 22 -5 168 -3 325 l3 285 51 3 52 3 -2 37 c-1 35 1 37 32
40 31 3 32 5 32 48 l0 44 64 0 65 0 3 38 c3 35 5 37 41 40 37 3 37 4 37 48 0
43 0 44 34 44 21 0 36 6 40 15 4 13 10 14 26 5 26 -14 29 -6 32 95 3 79 3 80
30 83 20 2 28 10 33 32 3 16 14 30 26 33 11 3 20 15 21 29 0 12 2 28 2 33 3
22 18 35 41 35 24 0 24 2 27 103 l3 102 28 3 c27 3 27 4 27 82 l0 79 43 3 42
3 3 57 c3 50 6 57 25 60 14 2 23 11 25 26 2 12 8 22 13 22 5 0 9 18 9 40 0 40
0 40 40 40 39 0 40 1 46 40 6 37 9 40 40 40 l34 0 0 -700z m-7380 635 c0 -21
5 -25 28 -25 62 0 71 -8 74 -64 3 -47 5 -51 31 -54 26 -3 27 -5 27 -63 l0 -59
40 0 40 0 0 -114 c0 -66 4 -117 10 -121 6 -3 10 -1 10 4 0 6 13 11 30 11 28 0
29 -1 32 -57 l3 -58 43 -3 42 -3 0 -55 0 -54 40 0 40 0 0 -155 0 -155 99 0 99
0 7 -49 c7 -52 18 -61 78 -61 25 0 27 -3 27 -45 l0 -44 50 -7 50 -7 0 -53 0
-53 52 -3 52 -3 -2 -290 c-2 -159 -5 -304 -8 -322 -5 -29 -10 -33 -48 -38 -22
-3 -119 -5 -214 -3 l-173 3 0 405 c0 268 -4 394 -10 373 -5 -18 -8 -203 -7
-430 l3 -398 21 -1 c45 -2 235 -172 375 -334 l56 -65 -5 -767 -4 -768 -42 0
c-40 0 -47 6 -244 198 l-202 197 0 742 c0 419 -4 744 -9 747 -10 6 -18 -385
-25 -1087 l-3 -447 145 -168 c116 -134 150 -167 169 -165 33 3 35 -16 29 -223
-3 -98 -5 -248 -5 -331 l-1 -153 -123 0 c-84 0 -128 4 -138 13 -8 6 -55 57
-105 112 -151 170 -316 349 -335 367 -18 16 -19 49 -19 882 l0 865 -61 68
c-33 37 -68 78 -76 90 -13 19 -15 86 -16 432 -1 225 1 412 5 416 3 4 26 3 50
-2 43 -9 43 -9 46 -56 3 -46 4 -47 38 -47 35 0 37 -3 48 -52 5 -20 13 -27 33
-30 16 -2 29 -10 30 -18 8 -67 16 -90 28 -90 8 0 20 -10 26 -22 9 -18 70 -81
131 -136 4 -4 31 -33 59 -64 28 -32 55 -58 60 -58 5 0 9 50 9 110 l0 110 -40
0 c-40 0 -40 0 -40 39 0 39 -1 40 -37 43 -36 3 -38 5 -41 41 -2 24 -8 37 -18
37 -8 0 -17 7 -21 16 -5 13 -8 13 -15 2 -6 -9 -8 -1 -6 22 3 33 2 35 -40 43
-44 9 -44 9 -40 48 l4 39 -38 0 c-34 0 -37 2 -40 33 -3 29 -6 32 -38 32 -31 0
-36 3 -40 30 -5 28 -8 30 -52 33 l-48 3 0 675 0 674 30 0 c25 0 30 -4 30 -25z
m4321 -64 c13 -12 22 -191 10 -191 -13 0 -42 54 -51 95 -4 20 -13 31 -30 36
-14 4 -305 7 -647 8 l-623 1 -1 -32 c0 -18 -4 -51 -9 -73 -6 -31 -8 -17 -7 60
l2 100 140 5 c187 7 1208 -1 1216 -9z m1039 -70 c45 -6 45 -6 50 -51 5 -43 7
-45 40 -50 34 -5 35 -7 38 -52 3 -47 4 -48 37 -48 33 0 34 -1 37 -47 3 -46 4
-48 36 -51 31 -3 32 -5 32 -47 0 -24 4 -46 8 -49 8 -5 8 -64 0 -72 -3 -2 -19
-7 -36 -10 l-32 -6 0 55 c0 53 -1 55 -30 61 -25 5 -30 10 -30 36 0 22 -5 30
-18 30 -28 0 -42 21 -43 64 0 32 -2 37 -9 21 -5 -11 -9 -151 -9 -312 l-1 -292
58 -6 c31 -3 75 -9 97 -13 l40 -7 -4 -135 c-3 -110 -6 -137 -19 -146 -14 -10
-17 -38 -21 -160 l-3 -148 -44 -54 c-47 -57 -53 -72 -29 -72 8 0 34 26 57 57
l43 56 3 146 c3 120 6 148 19 156 113 72 108 65 111 128 3 50 7 62 38 93 31
30 41 35 75 32 l39 -3 2 -617 3 -618 -37 -25 c-20 -14 -41 -25 -47 -25 -5 0
-11 -21 -13 -47 -3 -40 -6 -48 -23 -48 -13 0 -21 8 -23 23 -3 19 -9 22 -48 22
l-44 0 0 -167 c-1 -93 -3 -202 -6 -243 -2 -41 -1 -117 3 -167 l8 -92 117 63
c64 35 133 66 153 69 l36 6 -3 -334 -3 -335 -25 -17 c-74 -52 -462 -281 -637
-376 -67 -37 -145 -80 -173 -97 -59 -34 -418 -218 -592 -302 l-118 -57 0 35
c0 31 4 36 43 51 100 39 538 265 547 283 13 24 13 87 1 95 -6 3 -11 -12 -13
-32 -3 -36 -6 -40 -83 -80 -44 -23 -86 -40 -93 -38 -7 3 -11 1 -8 -3 5 -9 -94
-61 -127 -68 -11 -2 -73 -30 -138 -64 -65 -33 -121 -60 -124 -60 -3 0 -5 202
-5 448 l0 448 102 78 103 77 195 -2 195 -2 3 214 2 214 98 98 97 97 -3 188 -4
188 30 45 c66 99 262 463 257 477 -7 19 1 31 -95 -143 -46 -82 -112 -196 -147
-252 l-63 -101 0 -195 0 -195 -27 -34 c-14 -18 -56 -63 -92 -101 l-66 -67 -5
-203 -5 -202 -182 0 c-100 0 -184 3 -187 6 -3 3 -1 423 5 933 11 958 11 956
-27 956 -8 0 -14 7 -14 16 0 9 -9 18 -20 21 -20 5 -20 14 -20 499 0 469 -1
494 -18 503 -10 6 -28 8 -40 5 -19 -6 -21 -1 -24 71 -2 42 -2 78 0 80 6 6 849
2 892 -4z m-2540 -82 c0 -74 -2 -81 -19 -76 -17 4 -18 -15 -25 -477 -4 -264
-11 -482 -14 -484 -4 -1 -12 -6 -18 -10 -15 -9 -24 -514 -24 -1324 l0 -628
-207 -2 c-154 -2 -207 -6 -211 -15 -3 -10 41 -13 196 -13 l200 0 96 -86 c101
-90 120 -113 110 -137 -3 -8 -1 -18 5 -22 13 -7 14 -273 4 -608 l-6 -217 -96
52 c-53 28 -187 105 -298 170 -111 65 -207 118 -212 118 -5 0 -11 10 -14 23
-3 20 -4 21 -12 3 -6 -15 2 -27 41 -63 49 -44 232 -153 367 -220 40 -20 75
-40 78 -45 3 -5 10 -8 15 -6 5 1 30 -12 56 -30 49 -34 64 -40 52 -20 -4 7 -3
8 4 4 12 -7 17 -96 7 -96 -19 0 -654 364 -674 386 -3 4 0 4 8 -1 8 -4 17 -2
22 6 16 25 10 49 -14 58 -13 5 -30 16 -38 24 -16 15 -136 84 -239 136 -36 19
-105 57 -155 85 -49 29 -106 59 -125 66 -19 7 -39 17 -44 22 -6 4 -18 8 -29 8
-10 0 -15 5 -12 10 3 6 1 10 -5 10 -39 0 10 -34 363 -251 65 -40 121 -77 124
-83 4 -5 -9 0 -28 11 -19 11 -92 53 -164 93 -71 40 -191 107 -265 150 -74 43
-159 89 -187 104 -45 22 -53 30 -52 54 1 20 2 22 6 7 5 -20 30 -45 45 -45 12
0 10 78 -2 101 -15 28 -38 23 -42 -8 -2 -16 -6 78 -10 207 -4 129 -4 256 -1
282 l6 47 54 0 c37 -1 56 -6 60 -15 3 -8 12 -14 19 -14 8 0 17 -7 21 -15 3 -9
23 -25 44 -36 l39 -19 0 301 c0 265 -2 304 -17 330 -16 26 -18 27 -35 12 -16
-14 -18 -14 -24 2 -4 10 -1 20 6 25 9 6 1 21 -31 56 -24 27 -50 53 -57 57 -16
11 -52 91 -52 118 0 10 -4 19 -10 19 -6 0 -11 -42 -12 -102 -1 -77 -3 -91 -7
-53 -3 28 -4 320 -1 650 l5 600 33 3 c29 3 40 -3 74 -40 22 -24 52 -69 65
-100 20 -45 30 -58 48 -58 12 0 32 -12 46 -26 22 -24 24 -34 25 -139 l2 -114
55 -98 c119 -213 321 -560 348 -601 l29 -43 0 -210 0 -209 95 -116 95 -115 1
-152 c1 -92 4 -140 9 -122 4 17 8 85 9 153 l1 123 -95 122 -95 122 0 201 0
202 -66 118 c-37 66 -125 226 -196 357 -70 131 -137 250 -147 265 -18 24 -20
53 -26 283 l-7 256 23 6 c13 4 57 7 97 7 l72 0 0 315 c0 203 -4 315 -10 315
-5 0 -10 -14 -10 -31 0 -22 -6 -32 -18 -36 -16 -4 -18 -12 -14 -54 3 -32 1
-49 -7 -49 -6 0 -12 -8 -12 -17 -1 -16 -2 -16 -6 -2 -4 18 -40 32 -56 22 -5
-3 -4 -10 2 -16 6 -6 11 -26 11 -44 0 -31 -2 -33 -36 -33 l-37 0 7 38 c3 20 6
60 6 89 l0 52 43 3 42 3 3 53 3 52 35 0 c32 0 34 2 34 35 0 33 2 35 35 35 35
0 35 0 35 45 l0 45 445 0 445 0 0 -81z m1244 -165 c44 -7 46 -8 46 -41 l0 -33
-377 2 c-440 2 -553 6 -553 19 0 5 7 9 15 9 8 0 15 8 15 18 0 10 3 22 7 25 8
9 785 9 847 1z m254 -324 c0 -69 -3 -150 -8 -180 l-7 -55 -3 65 c-1 36 -4 79
-6 95 -1 17 0 93 4 170 5 117 7 131 13 85 4 -30 7 -111 7 -180z m-2637 76 c2
-2 2 -31 1 -65 -4 -58 -4 -60 -27 -51 -29 11 -35 5 -35 -37 0 -29 -3 -33 -25
-33 -25 0 -25 0 -25 95 l0 95 53 0 c30 0 56 -2 58 -4z m4157 -49 c2 -18 -1
-27 -11 -27 -9 0 -14 11 -14 30 0 37 21 34 25 -3z m-68 -67 c0 -13 5 -18 16
-13 8 3 13 12 10 19 -3 7 -1 16 3 18 11 7 21 -59 15 -93 -5 -24 -10 -27 -35
-23 -28 4 -29 6 -29 64 0 37 4 57 10 53 6 -3 10 -15 10 -25z m-3 -142 c-3 -7
-5 -2 -5 12 0 14 2 19 5 13 2 -7 2 -19 0 -25z m40 0 c-3 -7 -5 -2 -5 12 0 14
2 19 5 13 2 -7 2 -19 0 -25z m-4470 -50 c-3 -8 -6 -5 -6 6 -1 11 2 17 5 13 3
-3 4 -12 1 -19z m4380 -70 c-3 -7 -5 -2 -5 12 0 14 2 19 5 13 2 -7 2 -19 0
-25z m-2576 -400 c-2 -36 -14 -75 -41 -129 -33 -65 -56 -93 -149 -180 l-111
-103 -3 -360 -2 -361 -3 433 -2 434 136 143 c75 79 143 153 151 165 21 30 27
18 24 -42z m1087 30 c15 -18 87 -99 160 -180 117 -130 132 -151 132 -183 0
-19 -4 -35 -9 -35 -5 0 -11 -9 -14 -20 -8 -30 -19 -25 -49 23 -14 23 -49 74
-76 112 -71 100 -191 299 -185 308 7 12 13 8 41 -25z m-258 -380 c-1 -33 -18
-40 -111 -43 -263 -9 -467 -7 -488 4 -12 7 -35 9 -52 6 -29 -7 -35 0 -21 22
11 18 47 20 370 22 236 1 302 -2 302 -11z m2220 -51 c0 -17 -48 -87 -60 -87
-13 0 -13 4 5 47 20 47 55 72 55 40z m448 -297 l82 0 0 -784 c0 -528 -3 -794
-11 -813 -5 -15 -72 -89 -147 -163 l-138 -135 -53 3 -53 4 5 782 c2 429 8 788
11 797 5 10 15 14 30 12 19 -4 24 0 29 26 4 17 4 51 0 76 -5 40 -3 45 19 55
33 15 58 60 58 102 0 45 7 51 50 44 19 -3 72 -6 118 -6z m-5123 -240 c3 -5 2
-10 -4 -10 -5 0 -13 5 -16 10 -3 6 -2 10 4 10 5 0 13 -4 16 -10z m6006 -18
c41 -39 9 -51 -80 -30 -44 10 -51 15 -51 36 0 24 2 25 55 19 34 -3 62 -13 76
-25z m-5937 -57 c-4 -8 -8 -15 -10 -15 -2 0 -4 7 -4 15 0 8 4 15 10 15 5 0 7
-7 4 -15z m6088 -232 c3 -36 5 -39 46 -47 42 -9 42 -9 42 -52 0 -43 1 -44 34
-44 32 0 34 -2 40 -44 6 -39 11 -45 36 -51 23 -5 29 -12 32 -38 2 -24 9 -33
28 -37 24 -6 25 -9 28 -93 3 -82 4 -87 25 -87 13 0 34 -15 52 -38 29 -35 30
-42 32 -142 1 -58 -1 -264 -4 -457 -6 -331 -7 -353 -24 -353 -13 0 -19 9 -21
37 -5 55 -28 55 -28 0 0 -24 -3 -59 -6 -76 -6 -28 -10 -31 -45 -31 -39 0 -39
0 -39 -40 l0 -40 -40 0 c-39 0 -40 -1 -40 -34 0 -18 -3 -54 -6 -80 l-7 -46
-43 0 c-42 0 -66 -13 -42 -23 8 -4 4 -8 -9 -12 -13 -4 -23 -13 -23 -20 0 -7
-9 -15 -20 -18 -16 -4 -20 -14 -20 -44 0 -36 -2 -38 -30 -38 -23 0 -32 5 -35
20 -2 11 -7 458 -10 993 l-6 972 50 0 50 0 3 -37z m-3421 -198 c-1 -136 -5
-194 -15 -213 -13 -24 -14 -17 -17 83 -8 232 0 350 23 327 7 -7 10 -75 9 -197z
m-188 -269 c-25 -39 -65 -105 -87 -147 -23 -41 -84 -146 -136 -232 l-95 -156
-95 0 c-95 -1 -95 -1 -110 29 -14 27 -51 88 -258 429 l-82 134 0 116 c0 188
13 223 60 164 11 -14 92 -100 180 -190 l160 -163 74 0 c69 0 75 2 82 23 18 59
131 189 269 311 l80 70 3 -159 3 -159 -48 -70z m-433 68 c0 -8 -4 -12 -10 -9
-5 3 -10 10 -10 16 0 5 5 9 10 9 6 0 10 -7 10 -16z m520 -216 c0 -20 -288
-353 -297 -344 -15 14 263 356 289 356 4 0 8 -6 8 -12z m-921 -65 c85 -77 251
-287 237 -300 -9 -10 -107 88 -190 192 -146 181 -159 210 -47 108z m2589 -637
c3 -45 0 -52 -36 -90 -40 -41 -59 -76 -42 -76 5 0 11 8 13 18 4 13 5 11 6 -5
1 -13 7 -23 16 -23 19 0 20 -16 2 -27 -8 -4 -42 -42 -77 -83 -84 -99 -154
-162 -215 -197 l-50 -28 -271 -3 c-237 -3 -272 -2 -283 12 -10 12 -10 16 -2
16 7 0 9 5 6 10 -3 6 -13 10 -22 10 -26 0 -83 32 -77 42 4 6 1 14 -6 18 -17
10 -4 30 19 30 10 0 24 7 31 15 7 8 19 15 26 15 8 0 19 9 26 20 7 11 18 20 23
20 23 0 64 26 69 42 2 10 12 18 23 17 16 0 16 -1 -2 -9 -17 -7 -15 -9 11 -9
17 -1 46 -6 63 -12 24 -8 39 -8 54 -1 12 6 74 32 137 57 63 26 119 51 125 56
5 5 15 9 23 9 7 0 37 15 65 34 60 39 125 68 137 61 5 -3 12 1 17 8 4 8 31 27
58 42 28 16 61 37 74 47 39 30 56 20 59 -36z m-4146 20 c19 -8 40 -22 48 -30
7 -9 18 -16 25 -16 23 0 216 -87 238 -107 12 -11 52 -35 90 -53 37 -18 67 -37
67 -42 0 -5 4 -7 8 -4 4 2 27 -8 49 -23 38 -26 49 -28 113 -26 40 2 74 6 77 9
8 8 63 -23 63 -35 0 -6 4 -8 9 -5 5 3 25 -5 44 -18 19 -13 43 -26 54 -28 13
-2 17 -11 16 -32 -3 -35 -7 -39 -36 -41 -16 -1 -23 -9 -25 -27 -2 -20 -10 -27
-33 -32 -16 -3 -29 -11 -28 -18 3 -29 -2 -38 -22 -38 -12 0 -23 8 -26 20 -5
19 -14 20 -260 20 -254 0 -293 5 -293 35 0 8 -6 15 -12 15 -7 0 -31 17 -53 38
-22 20 -74 67 -115 104 -143 128 -244 227 -238 234 4 3 27 -1 52 -9 40 -14 46
-14 46 -1 0 8 -11 19 -25 24 -29 11 -33 27 -8 32 10 2 18 12 18 23 0 15 6 19
23 18 14 -2 22 3 22 12 0 20 65 20 112 1z m2635 -108 c-4 -66 -7 -215 -7 -329
l0 -207 -67 -25 c-414 -155 -560 -207 -583 -207 -21 0 -605 210 -614 222 -2 1
-7 148 -10 326 -6 265 -5 322 6 322 7 0 65 -52 128 -116 108 -109 122 -120
220 -166 58 -28 148 -68 201 -89 l96 -39 161 74 c143 66 167 81 214 130 63 67
239 225 252 225 5 1 6 -50 3 -121z m1570 87 c-4 -8 -11 -15 -17 -15 -7 0 -7 6
0 21 13 23 26 19 17 -6z m-4800 -160 l53 -35 0 -309 c0 -169 -3 -342 -6 -384
l-7 -77 -101 6 c-56 4 -103 9 -106 11 -3 3 -6 193 -8 422 l-3 418 63 -9 c46
-6 77 -18 115 -43z m4741 42 c16 0 15 -3 -4 -26 -21 -24 -48 -17 -34 9 5 10 7
20 2 23 -4 2 0 2 8 -1 8 -2 21 -5 28 -5z m569 -417 l1 -420 -104 0 -104 0 0
53 c0 28 -3 205 -7 392 l-6 340 39 27 c33 23 50 27 110 27 l71 1 0 -420z
m-1576 43 c13 -16 12 -17 -3 -4 -10 7 -18 15 -18 17 0 8 8 3 21 -13z m-3092
-209 c59 -17 152 -61 213 -101 l38 -26 315 5 315 5 0 -88 c0 -48 -4 -90 -8
-93 -11 -6 -600 -9 -628 -2 -11 2 -36 15 -56 28 -19 12 -114 66 -211 118
l-176 95 -1 44 0 44 73 -7 c39 -4 97 -14 126 -22z m3956 -115 c9 -16 12 -29 7
-29 -4 0 -15 16 -24 35 -18 41 -5 37 17 -6z m-442 -19 l277 0 0 -64 0 -64
-107 -43 -108 -44 -138 -1 c-76 -1 -140 -3 -142 -6 -6 -6 -202 0 -262 8 l-43
5 0 46 c0 25 5 75 12 111 l12 65 110 -7 c61 -3 236 -6 389 -6z m-2164 -91
c213 -134 412 -262 416 -269 3 -5 78 -6 168 -3 l162 5 93 50 c51 27 156 87
233 134 77 46 144 84 149 84 5 0 8 -57 6 -132 -2 -73 -4 -177 -5 -230 l-1 -97
-74 -83 c-82 -93 -102 -123 -86 -133 6 -4 48 29 94 73 46 44 103 94 126 111
l43 31 172 0 c95 0 192 -3 216 -6 l44 -6 -3 -192 c-3 -136 -7 -195 -16 -206
-7 -8 -17 -22 -21 -30 -8 -13 -7 -13 8 -1 10 8 19 12 21 10 2 -2 -85 -87 -195
-189 -195 -182 -199 -185 -251 -192 -29 -3 -384 -6 -788 -7 l-735 -1 -95 82
c-183 156 -186 160 -194 219 -7 49 -18 68 -40 69 -4 0 -6 -7 -2 -15 6 -17 -5
-18 -52 -9 l-31 6 -3 259 -3 259 158 0 c126 0 157 -3 157 -14 0 -13 66 -26
138 -26 29 0 49 -15 140 -100 88 -83 108 -97 113 -82 4 10 14 24 23 31 9 7 16
18 16 23 0 6 -6 6 -14 -1 -12 -10 -25 -2 -68 41 -89 87 -82 64 -88 335 -3 133
-3 243 -1 243 2 0 34 -19 70 -41z m2781 -54 c0 -58 -4 -84 -11 -82 -18 3 -22
-22 -5 -29 12 -5 6 -14 -26 -41 -72 -60 -306 -202 -391 -238 l-36 -15 -9 32
c-12 42 -6 47 128 110 137 63 190 91 197 101 3 5 -18 -3 -46 -17 -28 -14 -56
-26 -63 -26 -7 0 -26 -7 -42 -15 -20 -11 -33 -12 -40 -5 -5 5 -14 10 -20 10
-5 0 -2 -6 7 -13 16 -11 9 -17 -58 -50 -42 -21 -81 -34 -87 -31 -6 4 -8 3 -4
-4 3 -6 -2 -13 -11 -16 -28 -8 -746 -1 -764 8 -10 4 -19 18 -22 32 -3 18 0 24
14 24 10 0 22 8 28 17 12 23 115 41 256 44 61 1 92 4 70 6 -59 6 -68 23 -12
23 26 0 47 4 47 8 0 5 -8 9 -17 9 -126 -1 -253 5 -253 11 0 4 107 9 238 10
130 1 257 5 282 8 46 6 154 43 272 95 36 16 81 29 100 29 18 0 83 20 143 45
61 24 116 44 123 44 9 1 12 -22 12 -84z m-4576 21 c45 -19 104 -44 131 -54 28
-11 67 -27 88 -36 l37 -16 0 51 0 52 68 -6 c47 -3 86 -14 130 -36 34 -17 67
-31 72 -31 5 0 34 -11 64 -25 30 -14 62 -25 70 -25 21 0 20 19 -1 37 -16 13
-16 13 5 3 12 -6 22 -15 22 -20 0 -20 87 -29 345 -34 149 -4 306 -6 350 -7 65
0 76 -2 58 -11 -13 -6 -23 -15 -23 -21 0 -5 6 -4 14 2 10 9 15 8 19 -3 3 -8
-1 -20 -8 -26 -8 -7 -12 -16 -10 -21 9 -13 -20 -72 -47 -96 -23 -22 -31 -23
-341 -29 l-316 -7 -54 35 c-56 37 -177 102 -177 94 0 -2 20 -15 43 -29 24 -13
77 -48 116 -78 l73 -54 -32 -5 -32 -5 22 -27 21 -28 165 0 164 0 0 -220 c0
-121 -5 -239 -10 -262 -7 -28 -13 -473 -18 -1228 l-7 -1185 -92 -3 c-60 -2
-93 1 -93 8 0 5 6 10 13 11 10 0 10 2 0 6 -7 2 -13 18 -13 35 0 25 -22 55
-119 163 -95 104 -121 140 -127 171 -7 35 -8 36 -14 14 -4 -16 -14 -26 -28
-28 l-22 -3 0 841 c0 791 -1 841 -17 847 -30 11 -33 25 -32 142 l1 113 -60 72
c-33 39 -104 130 -157 201 -128 169 -354 433 -392 458 -7 4 -13 28 -13 53 0
25 -5 54 -11 66 -7 12 -8 42 -4 80 l7 59 36 -3 c39 -3 52 13 32 38 -24 28 -2
25 66 -10 38 -20 73 -36 79 -36 5 0 -19 16 -54 35 -116 62 -109 73 13 21z
m5872 -2 c-3 -9 -6 -25 -6 -36 0 -11 -5 -18 -12 -16 -16 6 -21 50 -6 60 21 12
31 9 24 -8z m-51 -89 c-6 -63 -10 -75 -24 -73 -27 5 -27 91 0 129 11 16 23 28
26 25 3 -2 2 -39 -2 -81z m-6647 -134 c206 -184 212 -212 18 -81 -72 49 -138
90 -146 92 -16 3 -16 3 -20 -102 -2 -61 -4 -68 -9 -39 -4 20 -16 54 -26 75
l-19 39 -7 -30 c-4 -19 -7 1 -8 57 0 48 3 90 9 93 6 3 10 27 10 53 0 44 1 46
13 22 7 -13 90 -94 185 -179z m5720 184 l30 -16 7 -120 c6 -95 10 -119 21
-115 28 11 12 -21 -44 -85 -31 -36 -140 -162 -241 -280 -101 -118 -223 -260
-272 -316 l-89 -102 0 -86 c0 -87 -7 -113 -41 -150 -18 -20 -18 -59 -19 -843
l-1 -822 -24 0 c-20 0 -25 -6 -30 -44 -7 -41 -16 -53 -129 -158 -88 -81 -122
-120 -124 -139 -2 -21 -10 -28 -34 -33 -29 -6 -177 -9 -179 -3 -1 1 -3 648 -4
1438 l-3 1437 30 6 c17 3 113 6 213 6 178 0 184 1 212 23 115 96 631 415 674
416 9 1 30 -6 47 -14z m845 -60 c-3 -9 -8 -14 -10 -11 -3 3 -2 9 2 15 9 16 15
13 8 -4z m-50 -57 c14 -11 4 -23 -81 -95 -136 -115 -191 -157 -198 -150 -3 3
0 13 7 24 14 21 241 233 249 233 4 0 14 -6 23 -12z m-2338 -8 c3 -5 1 -10 -4
-10 -6 0 -11 5 -11 10 0 6 2 10 4 10 3 0 8 -4 11 -10z m42 -6 c-3 -3 -12 -4
-19 -1 -8 3 -5 6 6 6 11 1 17 -2 13 -5z m-60 -46 c-3 -8 -6 -5 -6 6 -1 11 2
17 5 13 3 -3 4 -12 1 -19z m-3630 -236 c50 -43 182 -195 448 -517 54 -66 91
-114 82 -106 -22 18 -22 3 0 -23 13 -15 10 -14 -10 3 -20 18 -24 27 -15 33 12
7 4 12 -14 9 -13 -2 -243 266 -410 477 -49 61 -68 75 -68 48 0 -12 -58 -32
-67 -23 -2 2 -4 34 -4 72 -1 43 -4 63 -10 54 -5 -8 -8 34 -7 106 l1 120 10
-103 9 -103 55 -47z m-869 106 c0 -87 0 -86 27 -80 42 8 87 -19 154 -90 35
-38 71 -78 79 -89 8 -11 25 -24 38 -29 13 -5 23 -14 22 -19 -3 -12 111 -131
124 -131 5 0 15 -6 23 -13 7 -7 26 -25 41 -38 16 -14 34 -34 40 -44 6 -11 19
-22 30 -25 18 -5 52 -31 97 -73 17 -17 17 -20 3 -36 -15 -16 -14 -19 9 -41 39
-37 35 -91 -14 -154 -51 -68 -75 -106 -69 -111 9 -9 139 165 132 176 -12 19
-13 59 -2 59 6 0 8 -9 5 -20 -5 -19 6 -25 41 -21 6 1 12 -7 12 -19 0 -17 6
-20 40 -20 l39 0 3 -87 3 -88 38 3 c35 3 37 2 37 -28 0 -18 6 -33 15 -36 9 -4
15 -11 14 -18 -6 -46 2 -66 25 -66 13 0 26 -7 30 -15 3 -8 11 -14 18 -13 9 2
15 -17 18 -62 5 -63 6 -65 35 -70 28 -5 30 -9 33 -52 3 -42 6 -47 30 -50 26
-3 27 -5 32 -78 5 -72 6 -75 31 -78 27 -3 39 -23 39 -69 0 -18 6 -23 25 -23
22 0 25 -5 31 -60 l7 -60 38 -6 c32 -5 38 -11 41 -33 2 -21 9 -27 36 -29 31
-3 32 -5 32 -48 0 -30 5 -46 15 -50 13 -5 15 -69 14 -493 0 -267 -4 -504 -8
-526 -8 -38 -9 -38 -10 -9 -1 39 -13 44 -97 44 l-64 0 0 89 c0 97 -3 101 -61
101 -16 0 -49 5 -73 12 -44 12 -44 12 -53 67 l-8 56 -82 0 -83 0 0 52 0 53
-40 0 c-38 0 -40 2 -40 30 0 33 -26 50 -75 50 -18 0 -26 7 -31 25 -5 21 -12
25 -46 25 -39 0 -39 1 -36 33 3 31 2 32 -40 35 l-43 3 1 231 c1 126 -1 232 -3
235 -5 5 -14 -81 -23 -239 -6 -108 -24 -151 -24 -59 0 44 -3 50 -22 53 -17 2
-24 11 -26 31 -3 23 -7 26 -27 21 -21 -5 -23 -3 -22 28 1 22 -2 32 -11 30 -6
-1 -11 4 -10 10 2 8 -6 12 -19 11 -15 -2 -23 3 -23 13 0 8 -16 22 -36 30 -20
8 -38 24 -41 35 -3 10 -11 19 -17 19 -7 0 -24 6 -39 13 -20 9 -27 19 -27 40 0
23 -4 27 -30 27 -25 0 -31 5 -38 32 -8 31 -10 32 -51 29 l-43 -3 3 54 3 53
-37 3 c-31 3 -37 7 -38 28 -1 13 -2 30 -3 37 0 6 -14 14 -31 17 -16 3 -39 10
-50 17 -23 13 -21 -78 -17 901 l2 632 39 0 38 0 1 -42z m7197 -717 c-5 -455
-11 -721 -17 -721 -6 0 -8 -7 -4 -15 9 -25 -5 -45 -31 -45 -13 0 -22 4 -19 9
3 4 -1 16 -8 26 -16 23 -39 10 -30 -17 5 -16 2 -19 -13 -14 -13 4 -22 -4 -35
-30 -10 -19 -18 -41 -18 -48 0 -8 -7 -16 -15 -20 -8 -3 -14 -13 -13 -23 4 -54
-1 -63 -37 -63 -30 0 -35 -3 -35 -23 0 -30 -19 -48 -39 -38 -11 6 -24 0 -44
-20 -16 -16 -23 -29 -18 -29 6 0 11 -20 11 -46 0 -44 -1 -45 -27 -42 -16 2
-33 -3 -41 -12 -10 -13 -11 -12 -6 5 5 15 -2 11 -29 -14 -28 -27 -34 -38 -26
-48 8 -9 8 -13 0 -13 -6 0 -11 -16 -11 -35 0 -31 -3 -35 -25 -35 -22 0 -25 -4
-25 -40 0 -22 -4 -40 -8 -40 -4 0 -8 12 -7 28 0 21 -4 26 -19 24 -11 -2 -15 1
-11 7 3 6 -1 11 -9 11 -18 0 -19 -5 -20 -110 l-1 -75 -47 -9 c-40 -8 -47 -13
-50 -35 -3 -24 -7 -26 -56 -29 l-54 -3 7 -60 7 -59 -111 0 -111 0 0 -40 0 -40
-62 -1 c-35 -1 -85 -1 -112 1 -44 2 -48 0 -41 -16 14 -32 13 -83 -2 -88 -8 -3
-13 -22 -13 -51 0 -38 -3 -45 -20 -45 -11 0 -20 5 -20 10 0 6 -4 10 -10 10 -5
0 -10 -18 -10 -40 0 -39 -1 -40 -35 -40 -33 0 -35 -2 -36 -32 -1 -18 -1 -38 0
-44 2 -17 -60 -24 -66 -7 -6 15 -53 18 -53 3 0 -5 6 -10 13 -10 8 0 7 -4 -3
-11 -12 -8 -12 -12 -2 -16 20 -8 -6 -33 -34 -33 -20 0 -23 6 -27 43 l-4 42 -1
-47 c-1 -33 -6 -48 -15 -48 -11 0 -15 33 -20 143 -9 177 -9 794 -1 833 4 21
20 38 60 62 45 28 54 38 54 62 0 46 10 60 41 60 24 0 29 4 29 24 0 36 10 56
29 56 14 1 14 2 -1 11 -30 17 -20 29 21 29 l40 0 3 48 c3 39 6 47 25 50 17 3
22 11 25 48 2 25 -1 50 -7 56 -7 7 -2 9 18 4 26 -6 27 -4 27 29 0 28 4 35 20
35 17 0 20 7 20 39 0 39 1 40 38 43 24 2 37 8 38 18 1 8 2 48 2 88 2 70 3 72
27 72 15 0 25 6 25 15 0 8 9 19 19 25 16 8 19 17 14 44 -5 32 -4 33 36 40 34
5 42 11 47 34 10 48 13 52 33 52 17 0 20 8 23 48 l3 47 41 3 c28 2 47 -2 58
-13 9 -9 16 -12 16 -6 0 6 4 11 9 11 4 0 12 -23 17 -52 13 -76 34 -75 34 1 l0
61 -40 0 -40 0 0 64 c0 56 3 66 20 71 11 3 20 12 20 20 0 7 7 21 16 30 14 13
19 14 25 3 7 -10 9 -10 10 0 1 6 2 16 3 20 0 5 46 45 101 89 101 82 305 283
305 302 0 14 77 57 130 72 77 22 100 43 100 94 0 43 0 44 38 47 20 2 41 0 46
-3 4 -4 5 -328 1 -728z m-2466 683 l31 -6 0 -249 c0 -159 -4 -249 -10 -249 -6
0 -10 81 -10 224 0 167 -3 226 -12 234 -7 5 -67 12 -133 14 -102 4 -120 7
-123 21 -3 15 10 17 111 17 63 0 129 -3 146 -6z m1392 -137 c-10 -9 -11 -8 -5
6 3 10 9 15 12 12 3 -3 0 -11 -7 -18z m-308 -493 c-279 -286 -353 -356 -353
-338 0 9 311 341 486 519 153 156 157 161 163 210 l6 50 3 -63 3 -63 -308
-315z m-1063 76 c0 -5 -7 -10 -16 -10 -8 0 -12 5 -9 10 3 6 10 10 16 10 5 0 9
-4 9 -10z m-3315 -200 c3 -5 1 -10 -4 -10 -6 0 -11 5 -11 10 0 6 2 10 4 10 3
0 8 -4 11 -10z m9 -24 c28 -1 53 -8 60 -17 6 -7 20 -19 31 -25 50 -28 16 -41
-122 -47 -53 -2 -62 -5 -58 -18 3 -9 -1 -19 -9 -22 -13 -5 -16 -39 -19 -209
l-2 -203 -3 236 c-1 167 -5 238 -14 247 -9 9 -9 12 -1 12 7 0 15 -9 18 -21 4
-11 9 -18 12 -15 9 8 -26 56 -41 56 -7 0 -21 10 -32 21 l-19 22 75 -8 c41 -4
97 -8 124 -9z m142 -98 c10 -13 12 -17 4 -10 -8 6 -23 12 -34 12 -17 0 -18 2
-6 10 8 5 15 10 16 10 0 0 9 -10 20 -22z m2781 -282 c105 -94 242 -198 276
-208 l37 -11 -2 -206 -3 -206 -77 -3 c-71 -3 -78 -1 -89 19 -6 12 -24 33 -40
47 -16 13 -29 29 -29 35 0 7 -9 18 -20 25 -11 7 -20 16 -20 22 0 5 -11 21 -25
36 -14 15 -25 32 -25 39 0 7 -11 20 -25 29 -14 9 -25 22 -25 29 0 7 -9 20 -20
30 -11 9 -20 24 -20 32 0 13 -85 15 -727 15 l-728 -1 -23 -49 c-13 -28 -37
-63 -53 -79 -16 -16 -29 -34 -29 -39 0 -6 -4 -12 -8 -14 -4 -1 -29 -31 -56
-66 -27 -35 -54 -66 -61 -68 -7 -3 -15 -14 -18 -25 -5 -17 -15 -19 -86 -19
l-81 0 0 209 0 208 51 6 c52 6 79 20 79 41 0 7 34 39 76 71 43 33 98 77 123
97 l46 37 782 1 783 0 37 -34z m-3040 -288 c-2 -13 -4 -3 -4 22 0 25 2 35 4
23 2 -13 2 -33 0 -45z m5753 -43 c0 -8 -2 -15 -4 -15 -2 0 -6 7 -10 15 -3 8
-1 15 4 15 6 0 10 -7 10 -15z m-3 -57 c-3 -7 -5 -2 -5 12 0 14 2 19 5 13 2 -7
2 -19 0 -25z m-2762 -368 c53 -113 116 -239 140 -280 23 -41 52 -91 62 -110
19 -34 20 -58 22 -463 1 -235 -1 -520 -5 -632 l-7 -205 -121 0 c-175 0 -192 4
-204 49 -6 20 -33 119 -60 221 -28 102 -69 239 -92 305 -23 66 -59 174 -82
240 -41 121 -68 177 -68 142 0 -15 -21 -17 -222 -20 l-223 -2 228 -3 c125 -1
227 -5 227 -9 0 -5 -169 -9 -376 -9 -206 -1 -377 -3 -378 -5 -8 -9 -108 -326
-155 -489 -51 -179 -126 -398 -140 -413 -5 -5 -61 -11 -125 -13 l-116 -5 -1
203 c0 112 -4 212 -9 223 -5 12 -9 -67 -9 -197 -1 -179 -3 -218 -15 -218 -8 0
-17 8 -21 18 -4 9 -9 235 -12 502 -3 267 -9 489 -14 495 -5 5 -9 57 -9 116 0
120 -6 105 138 347 30 52 70 133 87 180 18 48 45 120 60 160 l28 72 667 0 668
0 16 -22 c15 -22 16 -22 15 -3 -2 26 0 39 5 34 2 -2 47 -96 101 -209z m-3932
-14 c-4 -6 -8 -17 -9 -24 -3 -18 55 -13 80 7 17 14 18 14 11 1 -5 -8 -9 -28
-8 -45 1 -21 0 -23 -4 -7 -4 19 -11 22 -49 22 -44 0 -44 0 -44 35 0 26 3 33
15 29 8 -4 12 -11 8 -18z m1452 -833 c103 -115 100 -110 81 -128 -9 -9 -16
-23 -16 -31 0 -8 -3 -14 -7 -14 -3 0 -52 45 -109 100 -56 55 -108 100 -113
100 -6 0 -19 -9 -28 -20 -10 -11 -21 -20 -25 -20 -19 0 -4 25 43 75 l52 55 26
-19 c15 -11 58 -54 96 -98z m3635 2 c0 -8 -12 -22 -26 -32 -23 -16 -50 -43
-110 -110 -18 -19 -23 -21 -27 -8 -4 8 -1 14 6 12 7 -1 10 5 9 13 -2 8 -6 23
-8 34 -2 10 -6 21 -10 25 -8 8 -54 9 -54 0 0 -4 -8 -10 -17 -13 -10 -3 17 28
60 69 l78 75 50 -25 c27 -14 49 -32 49 -40z m-4192 48 c-10 -2 -28 -2 -40 0
-13 2 -5 4 17 4 22 1 32 -1 23 -4z m4012 -137 c-7 -7 -13 -7 -20 0 -6 6 -3 10
10 10 13 0 16 -4 10 -10z m1 -109 c-10 -9 -11 -8 -5 6 3 10 9 15 12 12 3 -3 0
-11 -7 -18z m-1996 -546 c8 -14 -7 -211 -17 -211 -4 0 -8 50 -8 110 0 99 7
129 25 101z"/>
<path d="M6940 5951 c-135 -69 -259 -141 -245 -141 6 0 19 6 30 13 11 8 88 49
170 92 133 69 179 96 165 95 -3 0 -57 -27 -120 -59z"/>
<path d="M6884 5775 c-29 -12 -84 -44 -122 -69 -39 -25 -76 -46 -81 -46 -6 0
-11 -4 -11 -10 0 -5 2 -10 4 -10 18 0 285 143 281 150 -8 13 -12 13 -71 -15z"/>
<path d="M6620 5620 c-9 -6 -10 -10 -3 -10 6 0 15 5 18 10 8 12 4 12 -15 0z"/>
<path d="M6675 5620 c-3 -5 -2 -10 4 -10 5 0 13 5 16 10 3 6 2 10 -4 10 -5 0
-13 -4 -16 -10z"/>
<path d="M6521 5600 c-7 -4 -12 -13 -10 -19 3 -8 10 -8 23 2 21 15 9 31 -13
17z"/>
<path d="M2910 6166 c0 -3 30 -22 68 -42 37 -21 78 -46 91 -56 24 -18 64 -26
46 -9 -15 14 -205 114 -205 107z"/>
<path d="M2921 6059 c-1 -18 41 -44 61 -36 9 4 7 6 -4 6 -10 1 -18 6 -18 11 0
6 -6 10 -14 10 -8 0 -17 6 -19 13 -4 8 -6 7 -6 -4z"/>
<path d="M3130 6046 c0 -7 111 -69 115 -64 2 2 -23 18 -56 36 -32 18 -59 31
-59 28z"/>
<path d="M3407 5889 c7 -7 15 -10 18 -7 3 3 -2 9 -12 12 -14 6 -15 5 -6 -5z"/>
<path d="M4170 5401 c27 -22 170 -94 175 -89 2 2 -42 27 -98 57 -56 29 -91 44
-77 32z"/>
<path d="M5802 8010 c45 -69 123 -169 136 -174 8 -4 10 -1 6 7 -8 13 -103 131
-142 176 l-23 26 23 -35z"/>
<path d="M7125 5409 c-4 -6 -5 -12 -2 -15 2 -3 7 2 10 11 7 17 1 20 -8 4z"/>
<path d="M3046 5485 c4 -8 8 -15 10 -15 2 0 4 7 4 15 0 8 -4 15 -10 15 -5 0
-7 -7 -4 -15z"/>
<path d="M3926 3834 c-4 -9 -4 -19 -1 -22 2 -3 7 3 11 12 4 9 4 19 1 22 -2 3
-7 -3 -11 -12z"/>
<path d="M4030 3696 c0 -7 12 -22 28 -31 15 -10 63 -52 106 -94 74 -70 76 -72
34 -21 -40 47 -156 160 -165 160 -2 0 -3 -6 -3 -14z"/>
<path d="M6957 4530 c-43 -15 -71 -30 -63 -33 7 -3 18 -1 24 5 12 12 56 -8 47
-22 -4 -6 2 -7 11 -3 11 4 13 8 6 11 -17 5 -15 29 4 36 26 10 29 7 8 -9 -10
-8 -14 -15 -7 -15 6 0 15 5 18 11 4 6 13 8 21 5 10 -4 14 2 14 19 0 14 -1 25
-2 24 -2 -1 -38 -14 -81 -29z"/>
<path d="M6735 4520 c-3 -5 -1 -10 4 -10 6 0 11 5 11 10 0 6 -2 10 -4 10 -3 0
-8 -4 -11 -10z"/>
<path d="M6705 4490 c-4 -7 -57 -10 -137 -9 -71 0 -132 -2 -135 -5 -6 -6 57
-10 86 -7 8 2 10 -2 6 -9 -12 -19 16 -30 70 -28 28 0 40 3 28 5 -13 2 -23 9
-23 14 0 6 9 7 21 4 16 -5 19 -4 14 5 -6 9 2 11 29 8 20 -2 36 0 36 4 0 4 7 8
15 8 8 0 15 5 15 10 0 13 -17 13 -25 0z"/>
<path d="M7036 4492 c-2 -4 -1 -14 5 -22 7 -12 9 -10 9 8 0 23 -5 28 -14 14z"/>
<path d="M7016 4453 c-6 -14 -5 -15 5 -6 7 7 10 15 7 18 -3 3 -9 -2 -12 -12z"/>
<path d="M3082 4635 c12 -12 222 -95 232 -91 6 2 2 7 -9 11 -11 4 -33 13 -50
20 -115 50 -189 76 -173 60z"/>
<path d="M4105 4500 c3 -5 8 -10 11 -10 2 0 4 5 4 10 0 6 -5 10 -11 10 -5 0
-7 -4 -4 -10z"/>
<path d="M2158 3036 c-11 -368 -10 -562 2 -550 7 7 9 150 8 410 l-3 399 -7
-259z"/>
<path d="M2060 2330 c0 -5 7 -7 15 -4 8 4 15 8 15 10 0 2 -7 4 -15 4 -8 0 -15
-4 -15 -10z"/>
<path d="M2470 1881 c0 -4 12 -7 26 -5 38 4 42 14 6 14 -18 0 -32 -4 -32 -9z"/>
<path d="M7950 3460 c0 -5 7 -10 15 -10 8 0 15 5 15 10 0 6 -7 10 -15 10 -8 0
-15 -4 -15 -10z"/>
<path d="M7496 2861 c-4 -7 -5 -15 -2 -18 9 -9 19 4 14 18 -4 11 -6 11 -12 0z"/>
<path d="M4720 2400 c-90 -3 -164 -11 -177 -18 -22 -12 -144 -230 -240 -427
-84 -174 -62 -147 41 50 194 371 186 358 231 371 29 9 189 13 568 13 l528 1
29 -66 c17 -36 30 -71 30 -77 0 -15 233 -475 270 -534 17 -26 30 -43 30 -39 0
4 -60 128 -133 274 -74 147 -151 311 -173 364 l-39 98 -405 -2 c-223 -1 -475
-4 -560 -8z"/>
<path d="M6893 1444 c1 -12 7 -21 14 -20 8 1 13 5 13 9 0 4 0 13 0 20 0 9 -3
8 -9 -2 -7 -11 -9 -11 -14 0 -3 8 -5 4 -4 -7z"/>
<path d="M710 6491 c0 -15 30 -21 51 -11 27 15 24 20 -16 20 -19 0 -35 -4 -35
-9z"/>
</g>
</svg>
